<svg width="390" height="295" viewBox="0 0 390 295" fill="none" xmlns="http://www.w3.org/2000/svg">
    <g opacity="0.6">
    <rect x="-59" y="-10" width="508" height="318" fill="#2C4C4A"/>

    <path fill-rule="evenodd" clip-rule="evenodd" d="M510.825 -73.0608L-120.436 38.2477L-121.826 30.3693L509.436 -80.9392L510.825 -73.0608ZM510.825 -43.0608L-120.436 68.2477L-121.826 60.3692L509.436 -50.9392L510.825 -43.0608ZM-120.436 98.2477L510.825 -13.0608L509.436 -20.9392L-121.826 90.3692L-120.436 98.2477ZM510.825 16.9392L-120.436 128.248L-121.826 120.369L509.436 9.06077L510.825 16.9392ZM-120.436 158.248L510.825 46.9392L509.436 39.0608L-121.826 150.369L-120.436 158.248ZM510.825 76.9392L-120.436 188.248L-121.826 180.369L509.436 69.0608L510.825 76.9392ZM-120.436 218.248L510.825 106.939L509.436 99.0608L-121.826 210.369L-120.436 218.248ZM510.825 136.939L-120.436 248.248L-121.826 240.369L509.436 129.061L510.825 136.939ZM-120.436 278.248L510.825 166.939L509.436 159.061L-121.826 270.369L-120.436 278.248ZM510.825 196.939L-120.436 308.248L-121.826 300.369L509.436 189.061L510.825 196.939ZM-120.436 338.248L510.825 226.939L509.436 219.061L-121.826 330.369L-120.436 338.248ZM510.825 256.939L-120.436 368.248L-121.826 360.369L509.436 249.061L510.825 256.939ZM-120.436 398.248L510.825 286.939L509.436 279.061L-121.826 390.369L-120.436 398.248Z" fill="#193A36"/>

    </g>
</svg>
    