<svg width="140" height="67" viewBox="0 0 140 67" fill="none" xmlns="http://www.w3.org/2000/svg">
    <path d="M3.906 22.6083L61.32 12.6797L64.96 13.936V11.8422L108.091 4.12607L135.496 17.3418L136.228 23.3704L117.74 44.5047L107.1 46.7381L100.38 44.6443L98.84 47.8547L15.498 62.6268L9.625 54.8353L6.6528 38.2109L7.9772 34.0765L5.418 34.2579L3.906 22.6083Z" fill="black"/>
    <path d="M10.0688 31.0224L8.141 37.795L11.0292 53.9518L15.4714 56.9514L96.88 41.9923L98.42 38.7818L106.54 41.0152L113.96 38.9214L132.02 18.4027L106.939 6.18774L66.4202 13.3163L66.36 16.4485L60.8342 14.2989L5.7064 23.9986L6.9776 31.2416L10.0688 31.0224Z" fill="#FFFF00"/>
    <path d="M46.6004 23.7319L41.965 45.4762L34.0284 46.8721L31.6456 35.4067L29.3118 47.7012L21.3752 49.097L16.6922 28.99L23.5648 27.7812L25.4226 40.6397L28.1652 26.9731L35.1232 25.7489L37.8742 38.4496L39.725 24.9393L46.6004 23.7319Z" fill="black"/>
    <path d="M61.8072 21.8713C63.3598 22.3766 64.6296 23.2476 65.6194 24.4829C66.6078 25.7182 67.2616 27.2341 67.5808 29.0305C67.7124 29.7759 67.7824 30.6218 67.7922 31.5654C67.7866 33.4386 67.41 35.1652 66.6624 36.7453C65.9134 38.3254 64.827 39.6444 63.4032 40.7025C61.9794 41.7619 60.2812 42.464 58.3058 42.8102C56.3122 43.1606 54.5398 43.088 52.9886 42.5925C51.4374 42.0955 50.1732 41.2357 49.196 40.0074C48.2174 38.779 47.5692 37.2673 47.2528 35.4709C47.0876 34.5343 47.0106 33.6619 47.026 32.8495C47.0316 30.9763 47.4124 29.2553 48.1726 27.6822C48.9328 26.1091 50.029 24.7942 51.4626 23.7333C52.8962 22.6739 54.6 21.969 56.5754 21.6228C58.5102 21.2837 60.2546 21.366 61.8072 21.8713ZM54.3634 29.2399C53.711 30.1332 53.3862 31.2597 53.389 32.6192C53.3792 33.0142 53.4142 33.433 53.4926 33.8727C53.6886 34.981 54.1436 35.7975 54.8604 36.3224C55.5758 36.8472 56.5278 37.0049 57.7164 36.7956C58.905 36.5862 59.8304 36.0306 60.4898 35.1261C61.1506 34.223 61.4726 33.1106 61.4572 31.7943C61.4628 31.3783 61.4264 30.9526 61.3494 30.5129C61.1506 29.3851 60.6928 28.5629 59.9788 28.0479C59.2662 27.5328 58.324 27.3779 57.155 27.5831C55.9468 27.7952 55.0158 28.348 54.3634 29.2399Z" fill="black"/>
    <path d="M84.6888 18.5576C86.0034 19.3421 86.8042 20.5453 87.0926 22.17C87.1738 22.6292 87.2102 23.0564 87.2004 23.4528C87.1948 24.8723 86.8098 26.1872 86.044 27.396C85.2796 28.6048 84.1904 29.5693 82.775 30.291L87.227 37.52L80.2102 38.7539L76.3336 31.9269L76.356 39.4323L69.972 40.5545L69.9482 19.6282L79.4388 17.9602C81.6242 17.5749 83.3742 17.7745 84.6888 18.5576ZM76.3322 27.551L78.8634 27.1057C80.1094 26.8865 80.7268 26.1872 80.7156 25.0063C80.717 24.9072 80.7058 24.7816 80.6792 24.6281C80.605 24.2079 80.4174 23.9008 80.1164 23.7068C79.8154 23.5128 79.4052 23.4626 78.8886 23.5533L76.3574 23.9986L76.3322 27.551Z" fill="black"/>
    <path d="M101.686 24.2177L109.225 33.6535L101.548 35.0033L95.62 26.9675L95.6242 36.0432L89.2402 37.1654L89.2164 16.2391L95.6004 15.1169L95.6214 23.9525L101.581 14.0658L109.201 12.7258L101.686 24.2177Z" fill="black"/>
</svg>
