<svg width="55" height="55" viewBox="0 0 55 55" fill="none" xmlns="http://www.w3.org/2000/svg">
    <path d="M36.8448 0.311599L35.6592 53.124L23.4764 54.5908L23.3776 52.3336L22.1312 53.998L17.5332 53.922L18.7036 1.9684L22.534 0.0988002L29.9212 0.197599L31.5856 1.1096L31.7148 0L36.8448 0.311599Z" fill="black"/>
    <path d="M32.7256 2.25715L29.9744 0.873947L22.7924 0.775146L21.1432 2.42435L20.0412 51.3607L22.572 51.3987L24.434 48.9211L24.5708 51.9307L34.9828 50.5551L36.1 0.965146L32.8852 0.911947L32.7256 2.25715Z" fill="#FFFF00"/>
    <path d="M54.3704 21.0672L53.2608 21.2268L54.2108 22.8684L54.5072 30.248L52.7364 34.124L0.8284 36.6548L0.630799 32.0644L2.2572 30.7724L0 30.7344L1.1476 18.5212L53.9144 15.9524L54.3704 21.0672Z" fill="black"/>
    <path d="M52.0828 20.1171L53.542 22.8303L53.8232 30.0047L52.212 31.6995L3.32881 34.0859L3.22241 31.5551L5.64681 29.6323L2.63721 29.5715L3.73921 19.1215L53.2836 16.7123L53.4204 19.9271L52.0828 20.1171Z" fill="#FFFF00"/>
</svg>
    